<svg xmlns="http://www.w3.org/2000/svg" viewBox="0 0 64 80" x="0px" y="0px"><title>call, phone, answer</title><g><path d="M53.071,48.392c-1.631,1.936-5.494,6.474-9.133,5.675-4.432-.973-14.431-6.432-21-13s-12.03-16.57-13-21c-.8-3.64,3.739-7.5,5.675-9.134,2.753-2.319,4.7-.487,5.783,1.351s3.5,5.445,4.425,7.019-.687,5.333-1.831,7.357c-.7,1.243,2.919,5.945,5.166,8.193s6.95,5.868,8.193,5.166c2.024-1.144,5.783-2.757,7.357-1.831s5.182,3.344,7.019,4.425S55.39,45.639,53.071,48.392Z"/></g><text x="0" y="79" fill="#000000" font-size="5px" font-weight="bold" font-family="'Helvetica Neue', Helvetica, Arial-Unicode, Arial, Sans-serif">Created by The Icon Z</text><text x="0" y="84" fill="#000000" font-size="5px" font-weight="bold" font-family="'Helvetica Neue', Helvetica, Arial-Unicode, Arial, Sans-serif">from the Noun Project</text></svg>