<svg xmlns="http://www.w3.org/2000/svg" xmlns:xlink="http://www.w3.org/1999/xlink" version="1.1" x="0px" y="0px" viewBox="0 0 64 80" style="enable-background:new 0 0 64 64;" xml:space="preserve"><g><path d="M32,8C18.77,8,8,18.77,8,32c0,4.55,1.29,8.99,3.72,12.83c0.16,0.25,0.2,0.57,0.11,0.85l-3.3,9.88l10.79-2.84   c0.08-0.02,0.17-0.03,0.26-0.03c0.17,0,0.34,0.05,0.49,0.13C23.69,54.9,27.82,56,32,56c13.23,0,24-10.77,24-24   C56,18.77,45.23,8,32,8z M47.29,46.83c-0.09,0.14-0.21,0.25-0.35,0.33c-0.98,0.57-2.17,0.85-3.52,0.85c-2.26,0-4.98-0.79-7.98-2.35   c-3.3-1.71-6.68-4.25-9.77-7.33c-3.08-3.09-5.62-6.47-7.33-9.77c-2.48-4.78-3.02-8.86-1.5-11.5c0.08-0.14,0.19-0.26,0.33-0.35   c0.94-0.59,5.13-1.03,6.49-0.39c0.27,0.14,0.48,0.39,0.54,0.68c0.46,1.99,1.44,4.26,2.86,6.57c0.15,0.25,0.19,0.55,0.1,0.83   c-0.26,0.81-1.45,2.32-2.35,3.23c1.44,2.16,3.23,4.34,5.23,6.33c1.99,2,4.17,3.79,6.33,5.23c0.91-0.9,2.42-2.09,3.23-2.35   c0.28-0.09,0.58-0.05,0.83,0.1c2.31,1.42,4.58,2.4,6.57,2.86c0.29,0.06,0.54,0.27,0.68,0.54C48.32,41.7,47.88,45.89,47.29,46.83z"/></g><text x="0" y="79" fill="#000000" font-size="5px" font-weight="bold" font-family="'Helvetica Neue', Helvetica, Arial-Unicode, Arial, Sans-serif">Created by Aulia Nurfadilah</text><text x="0" y="84" fill="#000000" font-size="5px" font-weight="bold" font-family="'Helvetica Neue', Helvetica, Arial-Unicode, Arial, Sans-serif">from the Noun Project</text></svg>